# xmcd CD database file
#
# Track frame offsets:
#	150
#	12420
#	22690
#	34532
#	45432
#	61242
#	78452
#	91572
#	105282
#	117127
#	127942
#	140945
#	154107
#	166732
#	176110
#	186392
#	204585
#	220472
#	235057
#	252045
#	266267
#	284047
#	301725
#	316187
#	335387
#
# Disc length: 4664 seconds
#
# Revision: 2
# Processed by: cddbd v1.5.2PL0 Copyright (c) Steve Scherf et al.
# Submitted via: CDex 1.70beta2
#
DISCID=46123619
DTITLE=Crystal Gayle - Greatest Hits
DYEAR=2007
DGENRE=Country
TTITLE0=I've Cried (The Blue Right Out Of My Eyes)
TTITLE1=Wrong Road Again
TTITLE2=Beyond You
TTITLE3=Somebody Loves You
TTITLE4=I'll Get Over You
TTITLE5=You Never Miss A Real Good Thing (Till He Says Goodbye)
TTITLE6=I'll Do It All Over Again
TTITLE7=River Road
TTITLE8=Don't It Make My Brown Eyes Blue
TTITLE9=Ready For The Times To Get Better
TTITLE10=Talking In Your Sleep
TTITLE11=Why Have You Left The One You Left Me For
TTITLE12=When I Dream
TTITLE13=Your Kisses Will
TTITLE14=Your Old Cold Shoulder
TTITLE15=Half The Way
TTITLE16=It's Like We Never Said Goodbye
TTITLE17=If You Ever Change Your Mind
TTITLE18=Too Many Lovers
TTITLE19=You Never Gave Up On Me
TTITLE20=You And I - with Eddie Rabbit
TTITLE21=Till I Gain Control Again
TTITLE22=The Sound Of Goodbye
TTITLE23=Cry
TTITLE24=He Is Beautiful To Me
EXTD=YEAR: 2007
EXTT0=
EXTT1=
EXTT2=
EXTT3=
EXTT4=
EXTT5=
EXTT6=
EXTT7=
EXTT8=
EXTT9=
EXTT10=
EXTT11=
EXTT12=
EXTT13=
EXTT14=
EXTT15=
EXTT16=
EXTT17=
EXTT18=
EXTT19=
EXTT20=
EXTT21=
EXTT22=
EXTT23=
EXTT24=
PLAYORDER=
